# xmcd CD database file
#
# Track frame offsets:
#	150
#	8321
#	14495
#	30121
#	46212
#	64875
#	84825
#	104714
#	122680
#	140359
#	158980
#	182188
#	196111
#	205170
#	214845
#	225391
#	228619
#	236947
#	237712
#	239474
#	242618
#	265919
#	288965
#	312056
#	322169
#
# Disc length: 4477 seconds
#
# Revision: 0
# Processed by: cddbd v1.5.1PL2 Copyright (c) Steve Scherf et al.
# Submitted via: CD2WAV32(JP) R3.22
#
DISCID=59117b19
DTITLE=NAMCO - ことばのパズル もじぴったん大辞典 オリジナルサウンドトラック
DYEAR=2006
DGENRE=Game
TTITLE0=Hello World
TTITLE1=smile!smile!
TTITLE2=Chizuru Miura - バンビーニ
TTITLE3=その猫の名はアンドレ
TTITLE4=ポータブル
TTITLE5=Positive Walkin'
TTITLE6=cherry
TTITLE7=モジモジモード
TTITLE8=Tick up
TTITLE9=STARS
TTITLE10=Chizuru Miura - Bedtime Puzzler
TTITLE11=古原奈々 - ふたりのもじぴったん (fine c'est la mix)
TTITLE12=神前暁 - わーずわーずの魔法 (easter egg mix)
TTITLE13=神前暁 - Piacevole! (PEPPERMINT mix)
TTITLE14=All Over the Word
TTITLE15=on and on
TTITLE16=辞典の音楽
TTITLE17=ステージクリア
TTITLE18=Congratulations!
TTITLE19=Sigh on Sunday
TTITLE20=前田愛 - estrellita
TTITLE21=鈴木麻里子 - [ai]
TTITLE22=宍戸留美 - paradox
TTITLE23=前田愛 鈴木麻里子 宍戸留美 - ふたりのぜのぴったん
TTITLE24=SE集
EXTD=
EXTT0=神前暁
EXTT1=神前暁
EXTT2=
EXTT3=
EXTT4=
EXTT5=
EXTT6=
EXTT7=
EXTT8=
EXTT9=
EXTT10=
EXTT11=
EXTT12=
EXTT13=
EXTT14=
EXTT15=
EXTT16=
EXTT17=
EXTT18=
EXTT19=
EXTT20=
EXTT21=
EXTT22=
EXTT23=
EXTT24=
PLAYORDER=
